PathFileType	4	(X/Y/Z)	D:\TRACE\v60_Jaco2_6-2-23\JustBodyDRS_Motion2_3-v60.trc
DataRate	CameraRate	NumFrames	NumMarkers	Units	OrigDataRate	OrigDataStartFrame	OrigNumFrames
100.00	100.00	      27	9	mm	100.00	1709	      6834
Frame#	Time	front left toe			Front right toe			aft left toe			aft right toe			Arm			FL body			FR body			AL Body			AR Body			
		X1	Y1	Z1	X2	Y2	Z2	X3	Y3	Z3	X4	Y4	Z4	X5	Y5	Z5	X6	Y6	Z6	X7	Y7	Z7	X8	Y8	Z8	X9	Y9	Z9	

1709	17.080	-186.31203	59.97029	-245.12201	217.63252	7.76816	-325.64682	-79.00746	21.74369	348.75668	242.64529	71.02105	332.22653	-127.96386	1217.41394	-390.81870	-87.52305	584.22784	-412.94559	71.02774	588.12482	-434.92157	41.49351	551.73651	523.97290	197.23941	549.31207	502.80939	
1710	17.090	-188.70172	71.90769	-247.16653	217.25679	7.41379	-325.70361	-79.82766	22.16451	348.58185	245.01572	83.69476	329.68509	-127.74519	1214.73169	-394.55838	-88.14537	583.34723	-413.59045	70.81284	587.31927	-435.72528	40.19387	551.89441	523.38751	195.30318	549.68243	502.53641	
1711	17.100	-191.14677	83.72797	-249.61664	216.37657	6.56103	-325.94089	-80.71497	22.43049	348.26050	245.68060	95.02995	327.14597	-128.76266	1212.12695	-397.73077	-89.37302	581.93817	-414.34811	69.38234	585.91565	-435.67569	38.59514	552.41528	522.97180	193.28799	550.19409	502.10443	
1712	17.110	-193.30254	95.04417	-251.96016	215.62709	5.68164	-326.11279	-81.71918	22.87735	348.10605	247.54218	107.25153	324.20297	-130.40483	1209.95520	-399.59448	-89.95374	580.19849	-415.12628	68.71379	584.48975	-436.38916	36.48257	552.94299	521.78784	191.52443	550.83563	501.56577	
1713	17.120	-194.24481	105.42782	-254.04565	214.98946	4.78234	-326.27393	-82.34276	23.17541	347.80484	246.88544	118.53068	321.81757	-131.59917	1209.20508	-401.36301	-90.49415	578.64313	-415.85052	68.41724	583.11700	-437.47458	34.65681	554.01050	521.52551	189.89725	551.67786	501.11862	
1714	17.130	-195.06232	115.17181	-256.36292	214.62216	4.23854	-326.21533	-83.26292	23.64876	347.49844	244.86594	129.04025	320.14484	-133.28355	1208.88599	-402.87753	-91.43422	577.20819	-416.68973	67.60458	581.51453	-438.32678	32.89093	555.06689	520.67694	188.18262	552.75964	500.46744	
1715	17.140	-196.01851	123.78978	-258.59003	213.73883	3.76241	-326.46500	-83.76348	24.01961	347.35620	243.12813	138.96379	318.20370	-134.54674	1208.06531	-404.41364	-92.20112	576.05615	-417.38727	66.87617	580.33899	-438.87387	31.17078	555.94904	520.26978	186.16364	553.67853	500.44595	
1716	17.150	-197.48526	131.44705	-260.93204	212.83783	3.02852	-326.69135	-84.11650	24.09839	347.26184	240.57256	147.15837	316.63904	-135.41533	1206.34009	-406.27640	-93.43336	574.87054	-418.39081	65.79610	579.26233	-439.42386	29.30577	556.86896	519.75165	185.41750	555.41663	499.11639	
1717	17.160	-198.58015	136.21893	-263.40454	212.54953	2.72993	-326.78302	-84.49748	24.35866	346.84390	239.05865	153.36484	314.80872	-136.13420	1204.63293	-408.67068	-94.07444	573.76025	-418.94052	64.63786	577.61792	-439.20523	27.19193	557.35480	519.26257	182.39020	555.23334	499.36206	
1718	17.170	-201.59912	141.28014	-266.16272	212.00778	1.86483	-327.04083	-84.97659	24.46991	346.61383	237.78040	156.39699	312.83661	-137.04045	1203.04517	-411.32501	-95.16680	572.56433	-419.80490	64.15928	577.06592	-440.40933	25.14133	558.34601	518.39862	180.50908	555.73975	499.22275	
1719	17.180	-203.72264	143.55196	-268.74515	211.57661	1.32576	-327.02637	-85.29421	24.73742	346.42972	237.68846	157.92894	311.03162	-138.05991	1202.04077	-413.90561	-95.80315	571.62238	-420.41440	62.69509	575.53589	-440.16638	23.06467	558.93060	517.98657	178.03734	556.58502	499.03064	
1720	17.190	-205.91795	142.08253	-270.39340	210.86293	0.66967	-327.14935	-85.82668	25.42348	346.16171	236.25595	156.63541	309.47800	-138.83516	1201.52576	-415.82339	-96.41912	570.84454	-421.21536	62.04182	574.85834	-441.10358	21.10170	559.89069	517.73541	176.06721	557.49530	498.67502	
1721	17.200	-207.17458	138.79762	-272.11053	210.36317	0.19584	-327.44394	-86.65423	26.07583	345.80237	233.96170	153.55417	307.63934	-139.81543	1200.85547	-417.82968	-97.52070	570.15094	-422.12088	61.05504	573.91223	-441.34875	18.31197	561.05408	516.65430	173.68373	558.48621	498.43903	
1722	17.210	-208.37003	134.08481	-273.91684	210.04042	-0.38735	-327.38168	-87.23980	26.60281	345.30191	231.27003	150.06334	306.39706	-140.60606	1200.19971	-419.51007	-98.66508	569.30560	-423.03781	60.98142	573.15698	-442.87491	16.23160	562.19318	516.04669	171.37575	559.38568	497.77896	
1723	17.220	-208.88136	128.21767	-275.81137	209.53494	-1.08109	-327.55121	-87.59995	26.79736	345.15948	228.16841	145.35663	305.53165	-140.84470	1199.33423	-421.39697	-99.58160	568.06891	-423.89835	59.88615	572.34375	-443.65796	14.07083	562.64178	515.44965	169.04208	560.25305	497.12103	
1724	17.230	-209.15398	121.09218	-278.27686	209.53674	-1.32862	-327.64795	-88.33285	27.20800	344.67636	225.55009	139.87872	304.33270	-141.18794	1198.79260	-423.64664	-100.84009	567.34906	-424.93030	58.96354	571.38196	-444.21228	11.32939	563.51959	514.56384	166.61839	560.87762	496.65573	
1725	17.240	-211.12778	114.92522	-281.30170	209.44107	-1.66675	-327.65564	-88.90210	27.51539	344.27197	222.95883	133.33830	302.85059	-142.00191	1198.22986	-425.69562	-101.50496	566.68341	-425.76224	57.91124	570.54218	-444.89600	9.26679	563.99884	514.03119	164.26901	561.49329	495.96671	
1726	17.250	-213.59087	108.69837	-284.74304	209.05144	-2.21469	-327.88843	-89.42619	28.39551	344.02625	219.97879	125.23874	300.74771	-143.00345	1197.55042	-427.82794	-101.98358	565.78650	-426.68024	56.91669	569.55188	-445.76682	6.63367	565.05524	513.02643	161.92946	562.03131	495.45752	
1727	17.260	-216.29935	102.63087	-288.04385	208.79546	-2.79303	-328.04822	-89.89830	29.09560	343.52142	216.71931	116.17144	298.54837	-144.05156	1196.53796	-430.00729	-103.38322	565.42603	-428.02002	56.30087	568.79871	-446.52423	4.33137	565.84363	512.11182	159.20256	562.69446	494.76920	
1728	17.270	-218.54054	95.32069	-291.41745	208.56915	-3.37334	-328.23364	-90.24957	29.38910	343.17374	213.46733	106.98767	296.75186	-145.18236	1195.25623	-432.07303	-104.62159	564.57373	-429.17517	55.02629	567.91187	-447.65591	1.97940	566.62024	510.87088	156.78850	563.04694	493.76547	
1729	17.280	-220.53703	87.57859	-294.88699	208.53323	-3.68058	-328.25964	-90.65282	29.68212	342.88721	210.18642	98.18478	294.90363	-145.69994	1194.34631	-434.61166	-105.36728	563.62396	-430.19525	54.06816	566.88098	-448.42755	-1.08826	567.02679	509.95364	154.45000	563.77386	493.36450	
1730	17.290	-222.62332	79.34792	-297.89490	209.21692	-4.00751	-328.17398	-90.69299	29.81026	342.64621	205.92368	89.54421	293.17120	-146.09450	1193.95886	-436.98529	-106.76391	562.63251	-431.55023	52.84726	566.02832	-449.48373	-3.61006	567.58685	508.85242	151.68997	564.18738	492.34714	
1731	17.300	-224.93484	70.85988	-300.35120	208.57802	-4.63116	-328.53906	-90.78599	30.14694	342.30630	202.57724	81.14835	291.61282	-146.55107	1193.46423	-439.54739	-107.82719	561.87756	-432.79095	51.57581	565.04889	-450.56842	-6.27136	568.35553	507.50339	149.45869	564.84119	491.26755	
1732	17.310	-226.96216	62.68953	-302.47134	208.39780	-5.07407	-328.71921	-90.96149	30.53968	342.05585	197.43680	71.68812	289.84830	-147.16698	1193.00232	-441.93423	-109.25961	561.27228	-434.48117	50.49482	564.15167	-451.87390	-8.34334	568.68378	506.08240	146.98921	565.38440	490.70340	
1733	17.320	-229.73880	54.32993	-304.25156	208.46153	-5.45886	-328.75433	-91.11001	30.88733	341.72537	194.96179	64.02021	288.28110	-147.95355	1192.23401	-444.18771	-110.00694	560.63855	-435.76627	49.41928	563.41272	-453.07880	-11.42729	569.60724	504.85934	144.22049	565.78217	489.37689	
1734	17.330	-232.37582	46.60909	-305.83780	208.47765	-5.82487	-328.90570	-91.17384	31.00933	341.47864	192.44870	56.64970	286.71106	-149.10706	1191.34058	-447.01059	-111.40751	559.96228	-437.56992	48.36537	562.47638	-454.46991	-14.14420	570.19922	503.28311	141.32571	566.17603	488.08795	
1735	17.340	-235.25446	39.37910	-307.24368	208.28416	-6.26718	-329.15634	-91.26694	31.08019	341.14673	189.57368	49.81906	285.37329	-149.85069	1190.57214	-449.73276	-112.43827	559.07355	-439.31055	47.33958	561.68799	-456.06369	-17.38570	570.89612	501.69977	138.56363	566.51569	486.94595	
